HIERARCHY
ROOT hip
{
  OFFSET 0 0 0
  CHANNELS 6 Xposition Yposition Zposition Zrotation Yrotation Xrotation
  JOINT abdomen
  {
    OFFSET 0 20.6881 -0.73152
    CHANNELS 3 Zrotation Xrotation Yrotation
    JOINT chest
    {
      OFFSET 0 11.7043 -0.48768
      CHANNELS 3 Zrotation Xrotation Yrotation
      JOINT neck
      {
        OFFSET 0 22.1894 -2.19456
        CHANNELS 3 Zrotation Xrotation Yrotation
        JOINT head
        {
          OFFSET -0.24384 7.07133 1.2192
          CHANNELS 3 Zrotation Xrotation Yrotation
          JOINT leftEye
          {
            OFFSET 4.14528 8.04674 8.04672
            CHANNELS 3 Zrotation Xrotation Yrotation
            End Site
            {
              OFFSET 1 0 0
            }
          }
          JOINT rightEye
          {
            OFFSET -3.6576 8.04674 8.04672
            CHANNELS 3 Zrotation Xrotation Yrotation
            End Site
            {
              OFFSET 1 0 0
            }
          }
        }
      }
      JOINT rCollar
      {
        OFFSET -2.68224 19.2634 -4.8768
        CHANNELS 3 Zrotation Xrotation Yrotation
        JOINT rShldr
        {
          OFFSET -8.77824 -1.95073 1.46304
          CHANNELS 3 Zrotation Xrotation Yrotation
          JOINT rForeArm
          {
            OFFSET -28.1742 -1.7115 0.48768
            CHANNELS 3 Zrotation Xrotation Yrotation
            JOINT rHand
            {
              OFFSET -22.5879 0.773209 7.07136
              CHANNELS 3 Zrotation Xrotation Yrotation
              JOINT rThumb1
              {
                OFFSET -1.2192 -0.487915 3.41376
                CHANNELS 3 Zrotation Xrotation Yrotation
                JOINT rThumb2
                {
                  OFFSET -3.37035 -0.52449 3.41376
                  CHANNELS 3 Zrotation Xrotation Yrotation
                  End Site
                  {
                    OFFSET -1.78271 -1.18214 1.43049
                  }
                }
              }
              JOINT rIndex1
              {
                OFFSET -7.75947 0.938293 5.60832
                CHANNELS 3 Zrotation Xrotation Yrotation
                JOINT rIndex2
                {
                  OFFSET -2.54057 -0.884171 1.56538
                  CHANNELS 3 Zrotation Xrotation Yrotation
                  End Site
                  {
                    OFFSET -1.62519 -0.234802 1.16502
                  }
                }
              }
              JOINT rMid1
              {
                OFFSET -8.24714 1.18213 3.41376
                CHANNELS 3 Zrotation Xrotation Yrotation
                JOINT rMid2
                {
                  OFFSET -3.10165 -0.590103 1.0647
                  CHANNELS 3 Zrotation Xrotation Yrotation
                  End Site
                  {
                    OFFSET -2.48547 -0.328903 0.83742
                  }
                }
              }
              JOINT rRing1
              {
                OFFSET -8.82822 0.546677 1.51678
                CHANNELS 3 Zrotation Xrotation Yrotation
                JOINT rRing2
                {
                  OFFSET -2.60934 -0.819778 -0.0198488
                  CHANNELS 3 Zrotation Xrotation Yrotation
                  End Site
                  {
                    OFFSET -2.33842 -0.294052 0.168128
                  }
                }
              }
              JOINT rPinky1
              {
                OFFSET -8.27202 -0.0477905 -0.4584
                CHANNELS 3 Zrotation Xrotation Yrotation
                JOINT rPinky2
                {
                  OFFSET -1.82734 -0.647385 -0.700984
                  CHANNELS 3 Zrotation Xrotation Yrotation
                  End Site
                  {
                    OFFSET -1.69225 -0.51767 -0.607171
                  }
                }
              }
            }
          }
        }
      }
      JOINT lCollar
      {
        OFFSET 2.68224 19.2634 -4.8768
        CHANNELS 3 Zrotation Xrotation Yrotation
        JOINT lShldr
        {
          OFFSET 8.77824 -1.95073 1.46304
          CHANNELS 3 Zrotation Xrotation Yrotation
          JOINT lForeArm
          {
            OFFSET 28.1742 -1.7115 0.48768
            CHANNELS 3 Zrotation Xrotation Yrotation
            JOINT lHand
            {
              OFFSET 22.5879 0.773209 7.07136
              CHANNELS 3 Zrotation Xrotation Yrotation
              JOINT lThumb1
              {
                OFFSET 1.2192 -0.487915 3.41376
                CHANNELS 3 Zrotation Xrotation Yrotation
                JOINT lThumb2
                {
                  OFFSET 3.37035 -0.52449 3.41376
                  CHANNELS 3 Zrotation Xrotation Yrotation
                  End Site
                  {
                    OFFSET 1.78271 -1.18214 1.43049
                  }
                }
              }
              JOINT lIndex1
              {
                OFFSET 7.75947 0.938293 5.60832
                CHANNELS 3 Zrotation Xrotation Yrotation
                JOINT lIndex2
                {
                  OFFSET 2.54057 -0.884171 1.56538
                  CHANNELS 3 Zrotation Xrotation Yrotation
                  End Site
                  {
                    OFFSET 1.62519 -0.234802 1.16502
                  }
                }
              }
              JOINT lMid1
              {
                OFFSET 8.24714 1.18213 3.41376
                CHANNELS 3 Zrotation Xrotation Yrotation
                JOINT lMid2
                {
                  OFFSET 3.10165 -0.590103 1.0647
                  CHANNELS 3 Zrotation Xrotation Yrotation
                  End Site
                  {
                    OFFSET 2.48547 -0.328903 0.83742
                  }
                }
              }
              JOINT lRing1
              {
                OFFSET 8.82822 0.546677 1.51678
                CHANNELS 3 Zrotation Xrotation Yrotation
                JOINT lRing2
                {
                  OFFSET 2.60934 -0.819778 -0.0198488
                  CHANNELS 3 Zrotation Xrotation Yrotation
                  End Site
                  {
                    OFFSET 2.33842 -0.294052 0.168128
                  }
                }
              }
              JOINT lPinky1
              {
                OFFSET 8.27202 -0.0477905 -0.4584
                CHANNELS 3 Zrotation Xrotation Yrotation
                JOINT lPinky2
                {
                  OFFSET 1.82734 -0.647385 -0.700984
                  CHANNELS 3 Zrotation Xrotation Yrotation
                  End Site
                  {
                    OFFSET 1.69225 -0.51767 -0.607171
                  }
                }
              }
            }
          }
        }
      }
    }
  }
  JOINT rButtock
  {
    OFFSET -8.77824 4.35084 1.2192
    CHANNELS 3 Zrotation Xrotation Yrotation
    JOINT rThigh
    {
      OFFSET 0 -1.70687 -2.19456
      CHANNELS 3 Zrotation Xrotation Yrotation
      JOINT rShin
      {
        OFFSET 0 -36.8199 0.73152
        CHANNELS 3 Zrotation Xrotation Yrotation
        JOINT rFoot
        {
          OFFSET 0.73152 -45.1104 -5.12064
          CHANNELS 3 Zrotation Xrotation Yrotation
          End Site
          {
            OFFSET -1.1221 -3.69964 12.103
          }
        }
      }
    }
  }
  JOINT lButtock
  {
    OFFSET 8.77824 4.35084 1.2192
    CHANNELS 3 Zrotation Xrotation Yrotation
    JOINT lThigh
    {
      OFFSET 0 -1.70687 -2.19456
      CHANNELS 3 Zrotation Xrotation Yrotation
      JOINT lShin
      {
        OFFSET 0 -36.8199 0.73152
        CHANNELS 3 Zrotation Xrotation Yrotation
        JOINT lFoot
        {
          OFFSET -0.73152 -45.1104 -5.12064
          CHANNELS 3 Zrotation Xrotation Yrotation
          End Site
          {
            OFFSET 1.1221 -3.69964 12.103
          }
        }
      }
    }
  }
}
MOTION
Frames:	6
Frame Time:	0.00833333
-2.75565 77.892 70.4329 -186.743 -21.1812 -154.968 -2.91321 -18.7508 -6.03204 -3.67958 -3.49434 -2.25716 -12.6182 4.37026 -10.5143 20.7385 8.34225 -24.0716 -0.0 0.0 0.0 -0.0 0.0 0.0 -1.61779e-13 -2.09917e-13 -8.015e-13 5.85479 -20.2154 4.83956 -9.25109 -3.69854 16.4044 -0.00143649 1.08216 0.152106 -5.24991e-09 5.11783e-11 -8.54356e-09 -9.09064e-09 1.07773e-10 -1.47565e-08 -5.24991e-09 5.11807e-11 -8.54358e-09 7.73091 5.47488 0.417314 -5.24991e-09 5.11779e-11 -8.54357e-09 2.90554 0.965183 0.102902 -5.24991e-09 5.11781e-11 -8.54356e-09 10.2786 0.731801 0.0259123 -5.24991e-09 5.11799e-11 -8.54356e-09 2.22167 -0.733487 -0.20892 -1.61804e-13 -2.09917e-13 -8.01649e-13 -0.329259 -9.18285 -8.22188 8.86587 -3.48008 -15.6912 2.90866 42.6576 -7.4404 5.88106e-09 3.77192e-10 -6.04808e-09 9.92879e-09 5.07537e-10 -1.06131e-08 5.88105e-09 3.77188e-10 -6.04807e-09 -7.73091 5.47488 -0.417314 5.88106e-09 3.7719e-10 -6.04809e-09 -2.90554 0.965183 -0.102902 5.88107e-09 3.77191e-10 -6.04808e-09 -10.2786 0.731801 -0.0259123 5.88106e-09 3.77193e-10 -6.04809e-09 -2.22167 -0.733487 0.20892 -2.03217e-16 0.0 -3.88251e-19 -9.26026 -57.2616 -23.237 -0.339796 46.3679 1.69679 -28.5843 -28.6208 -44.2301 2.03217e-16 0.0 3.88251e-19 12.8569 -5.82162 4.30701 0.126814 31.2116 -0.796403 -3.2829 28.5746 8.34668
-2.7013 77.9887 69.7556 -186.822 -19.9313 -155.736 -3.44283 -18.3437 -6.67742 -3.56387 -3.65086 -2.42812 -12.3139 4.75519 -9.83317 20.79 8.52391 -23.4407 -0.0 0.0 0.0 -0.0 0.0 0.0 -3.65744e-14 -1.95609e-13 -6.80168e-13 5.20645 -20.2202 3.33025 -9.19011 -3.66343 16.2915 -0.00338956 2.46789 0.346735 -3.5187e-09 9.52819e-11 -7.21661e-09 -6.09827e-09 1.84784e-10 -1.24664e-08 -3.5187e-09 9.52837e-11 -7.21662e-09 7.73091 5.47488 0.417314 -3.5187e-09 9.52815e-11 -7.21661e-09 2.90554 0.965183 0.102902 -3.5187e-09 9.52815e-11 -7.21661e-09 10.2786 0.731801 0.0259123 -3.5187e-09 9.52834e-11 -7.2166e-09 2.22167 -0.733487 -0.20892 -3.66235e-14 -1.95609e-13 -6.80333e-13 0.0169556 -7.57075 -8.62769 8.94656 -3.5259 -15.8395 2.88649 42.5166 -7.40532 5.6047e-09 1.38044e-09 -3.65697e-09 9.52889e-09 2.27142e-09 -6.48211e-09 5.60469e-09 1.38044e-09 -3.65696e-09 -7.73091 5.47488 -0.417314 5.6047e-09 1.38044e-09 -3.65697e-09 -2.90554 0.965183 -0.102902 5.6047e-09 1.38044e-09 -3.65697e-09 -10.2786 0.731801 -0.0259123 5.6047e-09 1.38044e-09 -3.65698e-09 -2.22167 -0.733487 0.20892 -2.03217e-16 0.0 -3.88251e-19 -7.3875 -56.2991 -20.7031 -0.334409 46.1829 1.69669 -28.7825 -29.0258 -44.1755 2.03217e-16 0.0 3.88251e-19 13.6618 -5.58303 3.28225 0.127798 31.2356 -0.789196 -3.13668 27.3333 8.41012
-2.61588 78.0307 69.0864 -186.832 -18.6506 -156.452 -4.02592 -17.9035 -7.33188 -3.4371 -3.95112 -2.61301 -11.9939 5.35924 -9.02711 20.8428 8.66678 -22.8485 -0.0 0.0 0.0 -0.0 0.0 0.0 1.34024e-13 -1.21396e-13 -4.83317e-13 4.59763 -20.0846 1.84943 -9.13997 -3.63475 16.1984 -0.0141457 4.08376 0.574403 -1.18595e-09 7.59247e-10 -4.83783e-09 -2.0638e-09 1.32938e-09 -8.36174e-09 -1.18595e-09 7.59248e-10 -4.83784e-09 7.73091 5.47488 0.417314 -1.18595e-09 7.59247e-10 -4.83783e-09 2.90554 0.965183 0.102902 -1.18595e-09 7.59247e-10 -4.83783e-09 10.2786 0.731801 0.0259123 -1.18596e-09 7.59249e-10 -4.83782e-09 2.22167 -0.733487 -0.20892 1.33934e-13 -1.21395e-13 -4.83516e-13 0.480456 -5.22849 -9.02103 9.09274 -3.60887 -16.1096 2.75714 41.7643 -7.2118 4.80738e-09 2.76497e-09 -3.86434e-10 8.2624e-09 4.71853e-09 -8.17819e-10 4.80738e-09 2.76497e-09 -3.86428e-10 -7.73091 5.47488 -0.417314 4.80739e-09 2.76497e-09 -3.86436e-10 -2.90554 0.965183 -0.102902 4.80738e-09 2.76497e-09 -3.86432e-10 -10.2786 0.731801 -0.0259123 4.80738e-09 2.76497e-09 -3.8644e-10 -2.22167 -0.733487 0.20892 -2.03217e-16 0.0 -3.88251e-19 -5.63666 -55.1808 -18.3413 -0.327342 45.9566 1.69996 -28.9519 -29.5702 -43.9928 2.03217e-16 0.0 3.88251e-19 14.4522 -5.2343 2.16771 0.122673 30.8858 -0.776894 -3.0507 25.4026 8.87693
-2.54112 78.1193 68.4037 -186.775 -17.5407 -157.207 -4.65668 -17.5161 -7.96455 -3.30808 -4.2779 -2.7973 -11.6192 5.99103 -8.3271 20.812 8.85957 -22.1364 -0.0 0.0 0.0 -0.0 0.0 0.0 2.84795e-13 -4.98479e-14 -2.74962e-13 4.03159 -19.9768 0.417606 -9.09641 -3.60998 16.1175 -0.0350853 5.6659 0.798547 9.43287e-10 1.50391e-09 -2.28039e-09 1.6201e-09 2.61213e-09 -3.94786e-09 9.4329e-10 1.50391e-09 -2.28041e-09 7.73091 5.47488 0.417314 9.43287e-10 1.50391e-09 -2.28039e-09 2.90554 0.965183 0.102902 9.4329e-10 1.50391e-09 -2.28039e-09 10.2786 0.731801 0.0259123 9.43281e-10 1.50391e-09 -2.28039e-09 2.22167 -0.733487 -0.20892 2.84667e-13 -4.98466e-14 -2.75195e-13 0.931202 -2.81273 -9.39821 9.2594 -3.70385 -16.4191 2.57461 40.6608 -6.93525 3.72369e-09 3.8462e-09 2.59979e-09 6.49469e-09 6.64299e-09 4.36507e-09 3.72369e-09 3.8462e-09 2.59979e-09 -7.73091 5.47488 -0.417314 3.72369e-09 3.8462e-09 2.59979e-09 -2.90554 0.965183 -0.102902 3.72369e-09 3.84621e-09 2.59979e-09 -10.2786 0.731801 -0.0259123 3.72369e-09 3.8462e-09 2.59979e-09 -2.22167 -0.733487 0.20892 -2.03217e-16 0.0 -3.88251e-19 -4.06246 -54.0375 -16.1555 -0.318711 45.6621 1.70027 -29.0087 -30.0138 -43.7584 2.03217e-16 0.0 3.88251e-19 15.1895 -4.93023 1.09764 0.113841 30.3181 -0.767766 -2.91093 22.5173 9.69886
-2.37104 78.2503 67.7524 -186.657 -16.3966 -157.87 -5.334 -17.2673 -8.5457 -3.18379 -4.51406 -2.96626 -11.1318 6.45734 -7.96465 20.6064 9.19209 -21.1453 -0.0 0.0 0.0 -0.0 0.0 0.0 3.50516e-13 -4.3535e-14 -1.19122e-13 3.49358 -20.0657 -0.950952 -9.05515 -3.58657 16.0411 -0.0596197 6.95055 0.981704 2.06398e-09 1.79011e-09 -4.17486e-10 3.56078e-09 3.10361e-09 -7.30212e-10 2.06398e-09 1.79011e-09 -4.17499e-10 7.73091 5.47488 0.417314 2.06398e-09 1.79011e-09 -4.17486e-10 2.90554 0.965183 0.102902 2.06398e-09 1.7901e-09 -4.17488e-10 10.2786 0.731801 0.0259123 2.06397e-09 1.79011e-09 -4.17483e-10 2.22167 -0.733487 -0.20892 3.50372e-13 -4.35336e-14 -1.1937e-13 1.21961 -0.976799 -9.74131 9.40241 -3.78604 -16.6856 2.38598 39.4671 -6.64501 2.5882e-09 3.93956e-09 4.13797e-09 4.59114e-09 6.83894e-09 7.05188e-09 2.58819e-09 3.93957e-09 4.13797e-09 -7.73091 5.47488 -0.417314 2.5882e-09 3.93956e-09 4.13797e-09 -2.90554 0.965183 -0.102902 2.58819e-09 3.93957e-09 4.13797e-09 -10.2786 0.731801 -0.0259123 2.5882e-09 3.93956e-09 4.13797e-09 -2.22167 -0.733487 0.20892 -2.03217e-16 0.0 -3.88251e-19 -2.68583 -53.0007 -14.118 -0.308828 45.2727 1.69145 -28.8743 -30.1121 -43.5465 2.03217e-16 0.0 3.88251e-19 15.8209 -4.82693 0.20493 0.103235 29.6882 -0.769811 -2.56246 18.4198 10.8352
-2.16987 78.3912 67.1813 -186.682 -15.0234 -158.297 -6.12262 -17.1653 -9.09169 -3.06573 -4.63276 -3.12085 -10.4173 6.67736 -8.1554 20.1106 9.76324 -19.6877 -0.0 0.0 0.0 -0.0 0.0 0.0 2.82447e-13 -1.60021e-13 -3.30165e-14 3.00303 -20.4544 -2.24909 -9.01742 -3.56518 15.9713 -0.0787693 7.85031 1.11052 1.60344e-09 1.30159e-09 4.85341e-10 2.76851e-09 2.25749e-09 8.34937e-10 1.60344e-09 1.30159e-09 4.85329e-10 7.73091 5.47488 0.417314 1.60344e-09 1.30159e-09 4.85341e-10 2.90554 0.965183 0.102902 1.60344e-09 1.30159e-09 4.85338e-10 10.2786 0.731801 0.0259123 1.60344e-09 1.30159e-09 4.8534e-10 2.22167 -0.733487 -0.20892 2.82321e-13 -1.6002e-13 -3.32483e-14 1.34838 0.188316 -10.0322 9.52487 -3.8576 -16.9135 2.16784 38.0186 -6.30372 1.19449e-09 2.28747e-09 3.36367e-09 2.1693e-09 3.98525e-09 5.75746e-09 1.19449e-09 2.28749e-09 3.36368e-09 -7.73091 5.47488 -0.417314 1.1945e-09 2.28747e-09 3.36367e-09 -2.90554 0.965183 -0.102902 1.19448e-09 2.28748e-09 3.36368e-09 -10.2786 0.731801 -0.0259123 1.19449e-09 2.28747e-09 3.36367e-09 -2.22167 -0.733487 0.20892 -2.03217e-16 0.0 -3.88251e-19 -1.51799 -52.12 -12.2151 -0.298017 44.7603 1.67115 -28.4763 -29.682 -43.3957 2.03217e-16 0.0 3.88251e-19 16.3111 -4.94419 -0.354076 0.0886612 28.9422 -0.790192 -1.91844 12.7511 13.06
